# xmcd
#
# Track frame offsets:
#  150
#  16512
#  29709
#  46554
#  64217
#  86313
#  101086
#  115759
#  133613
#  148314
#  161652
#  174928
#  192974
#  211088
#  228544
#
# Disc length: 3238 seconds
#
# Revision: 0
# Processed by: cddbd v1.5.2PL0 Copyright (c) Steve Scherf et al.
# Submitted via: Collectorz.com_Music_Collector 6.11
#
DISCID=c30ca40f
DTITLE=Jackson Taylor Band - The Whiskey Sessions
DYEAR=2006
DGENRE=Country/Rock
TTITLE0=No Apologies
TTITLE1=Joy and Pain
TTITLE2=Highway 101
TTITLE3=Tonight (Is All About Me)
TTITLE4=Are The Good Times Really Over For Good
TTITLE5=Whiskey Sessions
TTITLE6=Bottom Of The Bottle
TTITLE7=The Mirror
TTITLE8=Saved
TTITLE9=Modern Day Joad
TTITLE10=That's Just Life
TTITLE11=Jim Beam
TTITLE12=Shame (Live) (Bonus Track)
TTITLE13=If I Could Have It My Way ('06) (Bonus Track)
TTITLE14=Bare Feet On The Dash ('06) (Bonus Track)
EXTD=
EXTT0=
EXTT1=
EXTT2=
EXTT3=
EXTT4=
EXTT5=
EXTT6=
EXTT7=
EXTT8=
EXTT9=
EXTT10=
EXTT11=
EXTT12=
EXTT13=
EXTT14=
PLAYORDER=
